<?xml version="1.0" encoding="utf-8"?>
<svg version="1.1" id="Layer_1" xmlns="http://www.w3.org/2000/svg" xmlns:xlink="http://www.w3.org/1999/xlink" x="0px" y="0px"
	 viewBox="0 0 196 275" style="enable-background:new 0 0 196 275;" xml:space="preserve">
<style type="text/css">
	.st0{fill:#FFFFFF;}
</style>
<path class="st0" d="M54.61,243.14V104.2c0,0-0.88-42.92,42.92-42.92s41.59,41.59,41.59,41.59"/>
<path d="M139.65,62.03c-6.09-6.42-16.69-13.91-33.77-15.79v-7.37h16.22c4.97,0,9-4.03,9-9s-4.03-9-9-9h-16.22h-18H71.66
	c-4.97,0-9,4.03-9,9s4.03,9,9,9h16.22v7.56c-15.99,2.11-26.24,9.24-32.27,15.4c-16.17,16.5-16.54,39.07-16.5,42.5v138.82h31V104.2
	l0.01-0.02l-0.01-0.23c0.01-1.01,0.34-13.12,7.77-20.56c4.43-4.45,10.86-6.61,19.65-6.61c8.8,0,15.36,2.17,19.5,6.45
	c6.92,7.15,6.61,18.85,6.61,18.96l0.01-0.15l30.96,1.65C154.74,101.19,155.45,78.7,139.65,62.03z"/>
<path d="M155.64,147.74l-11.46-27.07c-0.02-0.05-0.04-0.1-0.07-0.14c0-0.01-0.01-0.02-0.02-0.04c-0.06-0.13-0.13-0.27-0.2-0.4
	s-0.16-0.26-0.24-0.39c-0.06-0.09-0.12-0.18-0.19-0.26c-0.04-0.05-0.09-0.11-0.13-0.16c-0.2-0.24-0.41-0.46-0.65-0.65
	c-0.09-0.08-0.18-0.15-0.27-0.22c-0.1-0.08-0.21-0.15-0.32-0.21c-0.06-0.05-0.12-0.09-0.19-0.12c-0.07-0.04-0.13-0.08-0.21-0.11
	c-0.07-0.04-0.14-0.08-0.21-0.11c-0.11-0.05-0.22-0.1-0.33-0.15c-0.14-0.05-0.28-0.11-0.43-0.15c-0.13-0.04-0.27-0.07-0.41-0.1
	c-0.03-0.01-0.05-0.01-0.09-0.02c-0.09-0.02-0.18-0.04-0.27-0.05c-0.01,0-0.01,0-0.01,0c-0.12-0.02-0.23-0.03-0.35-0.04
	c-0.31-0.02-0.61-0.02-0.91,0c-0.12,0.01-0.23,0.02-0.35,0.04c-0.01,0-0.01,0-0.01,0c-0.12,0.02-0.24,0.04-0.36,0.07
	c-0.4,0.09-0.79,0.22-1.16,0.4c-0.09,0.04-0.17,0.08-0.25,0.12c-0.05,0.02-0.1,0.05-0.15,0.09c-0.09,0.05-0.19,0.1-0.27,0.16
	c-0.16,0.1-0.3,0.21-0.44,0.32c-0.07,0.05-0.13,0.11-0.19,0.16c-0.19,0.18-0.38,0.36-0.55,0.57c-0.05,0.05-0.09,0.11-0.13,0.16
	c-0.07,0.09-0.13,0.17-0.19,0.26c-0.07,0.1-0.15,0.21-0.21,0.32c-0.03,0.05-0.06,0.1-0.09,0.16c-0.05,0.1-0.1,0.19-0.14,0.29
	c-0.01,0.01-0.02,0.03-0.02,0.05c-0.02,0.04-0.05,0.09-0.07,0.14l-11.46,27.07c-1.38,2.6-2.16,5.56-2.16,8.7
	c0,10.29,8.37,18.66,18.66,18.66s18.66-8.37,18.66-18.66C157.8,153.29,157.02,150.33,155.64,147.74z"/>
</svg>
